<?xml version="1.0" standalone="no"?>
<!DOCTYPE svg PUBLIC "-//W3C//DTD SVG 20010904//EN"
 "http://www.w3.org/TR/2001/REC-SVG-20010904/DTD/svg10.dtd">
<svg version="1.0" xmlns="http://www.w3.org/2000/svg"
 width="960.000000pt" height="960.000000pt" viewBox="0 0 960.000000 960.000000"
 preserveAspectRatio="xMidYMid meet">
<metadata>
Created by potrace 1.14, written by Peter Selinger 2001-2017
</metadata>
<g transform="translate(0.000000,960.000000) scale(0.100000,-0.100000)"
fill="#000000" stroke="none">
<path d="M3679 9577 c-13 -6 -57 -25 -96 -43 -52 -24 -87 -34 -122 -34 -27 0
-92 -6 -143 -14 -51 -8 -129 -20 -173 -26 -77 -11 -189 -43 -210 -60 -5 -4
-36 -15 -67 -24 -34 -10 -64 -26 -76 -41 -13 -16 -22 -21 -29 -14 -6 6 -14 5
-23 -6 -7 -8 -19 -15 -26 -15 -8 0 -76 -62 -152 -139 -116 -118 -181 -171
-207 -171 -13 0 -3 19 25 49 17 17 27 31 23 31 -4 0 2 7 13 16 18 14 18 14 -6
3 -86 -42 -305 -213 -317 -248 -6 -15 -58 -85 -95 -125 -10 -11 -18 -25 -18
-30 0 -6 5 -4 10 4 6 10 12 12 20 4 7 -7 0 -22 -25 -50 -19 -21 -35 -34 -35
-29 -1 6 -7 -5 -15 -23 -8 -18 -18 -31 -23 -28 -4 2 -14 -10 -21 -27 -17 -39
-140 -287 -170 -342 -11 -22 -47 -101 -79 -175 -52 -123 -57 -141 -55 -200 2
-47 -4 -86 -21 -140 -42 -127 -58 -271 -71 -613 -3 -89 -7 -175 -9 -192 -13
-105 -17 -193 -9 -198 6 -4 36 16 68 43 74 63 167 111 275 144 100 30 163 29
248 -5 83 -32 136 -75 232 -186 17 -20 32 -28 48 -25 24 5 31 -15 11 -35 -19
-19 -6 -58 21 -61 14 -2 20 1 14 5 -6 4 -14 18 -18 30 -6 18 -2 24 19 29 19 5
32 1 51 -17 13 -12 24 -28 24 -35 0 -7 12 -14 27 -16 17 -2 29 -10 33 -23 10
-38 61 -85 94 -86 17 -1 24 -3 14 -6 -24 -6 -28 -27 -12 -58 8 -15 14 -39 14
-54 0 -15 12 -51 26 -80 27 -56 33 -119 21 -201 -4 -25 -3 -62 2 -82 5 -22 5
-38 0 -38 -12 0 -12 -77 0 -82 9 -3 14 -93 8 -153 -4 -45 -37 -145 -48 -145
-5 0 -7 -36 -4 -86 5 -65 2 -92 -10 -116 -8 -17 -15 -45 -15 -62 0 -45 -27
-127 -48 -146 -10 -10 -31 -44 -48 -76 -16 -32 -35 -63 -41 -67 -7 -4 -13 -17
-13 -28 0 -12 -10 -23 -25 -29 -17 -6 -25 -17 -25 -34 0 -13 -6 -29 -14 -35
-20 -17 -31 -108 -15 -127 10 -12 8 -18 -9 -30 -28 -19 -29 -54 -2 -54 11 0
20 -4 20 -9 0 -5 -9 -7 -19 -4 -11 3 -29 -2 -41 -10 -21 -14 -21 -16 -3 -25
14 -9 15 -13 6 -23 -17 -17 -43 6 -43 37 0 15 -6 24 -16 24 -13 0 -15 12 -11
83 2 45 2 87 0 93 -7 22 -143 5 -193 -24 -25 -14 -46 -25 -48 -23 -1 1 -22 -7
-45 -18 -50 -24 -177 -30 -219 -11 -15 7 -39 30 -54 51 -15 22 -30 39 -34 39
-5 0 -23 26 -42 57 -58 99 -72 121 -97 150 -13 15 -34 52 -47 81 -23 50 -46
66 -58 40 -3 -7 -3 3 0 22 8 50 3 141 -7 134 -3 -2 -15 3 -25 11 -15 11 -17
16 -6 26 6 7 12 22 11 34 0 15 -4 12 -15 -12 -8 -18 -18 -33 -23 -33 -10 0
-41 -96 -41 -128 0 -11 -7 -33 -15 -48 -8 -16 -15 -39 -15 -51 0 -12 -5 -25
-10 -28 -5 -3 -10 -17 -10 -30 0 -13 -5 -27 -10 -30 -6 -3 -10 -15 -10 -25 0
-10 -6 -25 -14 -33 -8 -7 -22 -37 -32 -65 -15 -40 -20 -48 -26 -35 -5 11 -6
-2 -5 -29 2 -25 0 -53 -5 -61 -16 -30 1 -44 52 -43 28 1 50 5 50 11 0 6 3 6 9
0 10 -12 -4 -136 -21 -180 -6 -16 -30 -63 -52 -102 -32 -56 -45 -71 -59 -67
-12 4 -17 0 -17 -14 0 -19 -39 -62 -56 -62 -5 0 -30 -18 -54 -40 -33 -29 -51
-39 -68 -35 -24 6 -29 -4 -11 -22 21 -21 -1 -36 -42 -29 -29 5 -42 2 -56 -12
-39 -39 -51 -44 -72 -32 -27 14 -53 -2 -81 -52 -23 -41 -49 -50 -57 -18 -7 28
-38 25 -62 -6 -12 -15 -21 -22 -21 -15 0 6 -17 11 -40 11 -25 0 -40 -5 -40
-12 0 -7 -12 1 -26 17 l-25 30 4 -28 c2 -15 1 -27 -4 -27 -21 0 -39 14 -39 30
0 10 -7 23 -15 30 -8 7 -15 19 -15 27 0 7 -7 25 -16 38 -20 31 -11 45 29 45
37 0 172 45 235 79 39 20 43 25 37 49 -7 31 -62 126 -85 148 -101 96 -336 210
-532 258 l-28 6 0 -2335 c0 -1758 3 -2346 12 -2379 l12 -44 284 -1 284 -1 -4
36 c-3 28 1 43 18 61 13 14 28 22 34 18 6 -4 22 -31 35 -61 l24 -54 120 0 121
0 1 38 c0 20 4 46 8 56 4 11 5 35 1 55 -4 28 -10 36 -25 34 -11 -2 -33 0 -49
3 -28 6 -28 7 -24 68 3 33 10 74 17 89 l11 29 113 -6 c61 -3 133 -8 159 -12
44 -6 49 -9 58 -42 7 -23 8 -58 3 -92 -8 -53 -9 -55 -43 -60 -39 -6 -47 -23
-49 -107 l-1 -53 130 0 130 0 0 63 c0 65 -11 87 -42 87 -16 0 -18 10 -18 84 0
58 4 85 13 88 31 11 296 -28 329 -48 6 -4 7 -23 4 -45 -3 -22 -9 -57 -12 -80
l-6 -41 -49 7 -48 7 -11 -44 c-6 -23 -13 -51 -16 -60 -5 -17 8 -18 171 -18
173 0 176 0 215 26 26 17 40 34 40 48 0 11 6 41 14 66 l14 45 55 -1 c62 -1
120 -28 126 -60 2 -10 14 -32 27 -47 13 -16 24 -39 24 -53 l0 -24 902 0 c607
0 905 4 914 11 8 7 14 7 19 -1 6 -10 1935 -15 1935 -5 0 3 -8 22 -19 43 -10
20 -25 57 -32 82 -7 25 -27 66 -44 91 -26 39 -33 63 -45 149 -7 57 -19 126
-26 154 -9 31 -16 128 -19 246 -6 234 -22 417 -41 485 -88 317 -93 343 -104
480 -6 77 -18 165 -26 195 -57 204 -56 198 -59 411 -3 216 -10 286 -27 256 -5
-9 -17 -17 -28 -17 -18 0 -60 -48 -60 -69 0 -6 -11 -21 -24 -32 -14 -12 -22
-27 -20 -34 3 -6 -6 -20 -20 -29 -15 -9 -26 -23 -26 -31 0 -23 -20 -28 -35 -9
-7 11 -11 22 -9 26 3 5 0 8 -5 8 -15 0 -8 74 8 94 17 20 41 21 41 2 0 -23 19
-29 27 -9 4 10 31 42 61 71 30 29 52 56 48 59 -3 4 -11 2 -17 -4 -14 -14 -81
3 -92 23 -4 8 -15 14 -23 14 -8 0 -20 13 -25 29 -16 46 -131 85 -244 83 -43
-1 -120 38 -121 63 -1 11 -2 34 -3 50 -2 37 -18 65 -28 49 -5 -6 -15 -13 -23
-16 -10 -3 -14 -16 -12 -45 3 -34 0 -41 -17 -46 -16 -4 -21 0 -21 15 0 10 4
16 10 13 6 -3 7 1 4 9 -3 9 -12 16 -20 16 -17 0 -18 12 -3 27 6 6 9 19 7 29
-2 11 7 28 22 41 18 16 22 25 14 33 -6 6 -18 8 -27 4 -18 -7 -23 -24 -7 -24 6
0 10 -4 10 -10 0 -5 -9 -10 -20 -10 -19 0 -20 4 -14 37 7 41 7 41 5 61 -3 33
-91 -20 -91 -56 0 -7 -10 -11 -22 -11 -17 1 -19 2 -5 6 9 2 17 9 17 15 0 5 -7
8 -15 5 -8 -4 -17 -2 -20 3 -4 6 -1 10 4 10 6 0 11 4 11 9 0 15 -64 20 -75 7
-5 -7 -23 -16 -38 -20 -27 -6 -28 -6 -12 17 12 19 13 26 3 35 -10 7 -21 4 -42
-15 -24 -20 -27 -27 -15 -35 11 -7 11 -11 2 -15 -7 -2 -13 -11 -13 -18 0 -7
-13 -20 -30 -29 l-30 -14 0 32 c0 17 -6 38 -12 45 -11 11 -8 12 12 6 22 -7 23
-6 11 9 -18 22 -49 12 -82 -26 -22 -26 -27 -27 -38 -14 -11 13 -10 19 5 33 10
10 22 18 27 18 20 0 17 23 -3 30 -42 13 -106 -33 -67 -48 6 -3 3 -6 -7 -6 -11
-1 -16 -4 -13 -8 4 -3 -10 -17 -31 -29 -27 -17 -46 -22 -69 -18 -20 4 -33 2
-33 -4 0 -6 10 -13 23 -15 l22 -4 -22 -2 c-22 -1 -34 -21 -12 -21 6 0 3 -7 -5
-16 -9 -8 -16 -22 -16 -30 0 -8 -5 -13 -11 -12 -6 2 -18 -11 -27 -27 -9 -18
-41 -45 -74 -65 -55 -32 -70 -52 -48 -65 15 -9 12 -42 -5 -49 -11 -4 -15 2
-15 24 0 34 -15 40 -25 10 -3 -11 -12 -20 -20 -20 -7 0 -18 -12 -24 -27 -10
-26 -11 -25 -7 14 5 49 -15 73 -57 73 -15 0 -37 6 -48 13 -17 9 -23 9 -26 0
-5 -13 -53 -19 -53 -6 0 3 11 20 24 37 23 31 30 85 13 102 -15 15 -5 19 47 20
30 1 61 4 70 7 23 9 17 57 -7 57 -10 0 -16 -4 -13 -9 7 -10 -50 -20 -76 -13
-22 5 -23 25 -3 42 20 17 19 33 -4 61 -15 19 -27 23 -62 20 -39 -3 -42 -1 -29
14 12 14 12 18 -1 26 -9 5 -9 9 -2 9 6 0 14 8 18 19 4 13 12 17 30 13 32 -6
34 20 3 37 l-23 12 23 -5 c16 -3 22 1 22 15 0 10 -7 19 -15 19 -8 0 -15 7 -15
16 0 11 -8 14 -25 12 -13 -2 -25 2 -25 7 -1 6 -8 14 -16 18 -8 4 -14 16 -14
27 0 10 -11 32 -25 49 l-26 30 41 43 c22 24 40 46 40 51 0 13 -27 8 -40 -8 -7
-8 -17 -15 -23 -15 -5 0 -20 -12 -32 -26 -17 -20 -27 -24 -49 -18 -18 4 -24 9
-16 14 9 6 9 9 0 15 -9 5 -4 15 15 31 32 27 41 29 48 12 2 -7 8 -9 13 -5 5 4
2 12 -6 17 -22 14 -5 23 19 10 24 -13 52 -3 30 11 -11 6 -10 11 6 23 25 18 11
35 -15 18 -11 -7 -33 -12 -50 -12 -23 0 -31 -5 -35 -23 -8 -32 -48 -59 -92
-63 -21 -2 -59 -6 -84 -9 -34 -5 -48 -3 -58 9 -11 13 -10 17 10 25 l24 9 -28
11 c-33 13 -67 0 -67 -25 0 -11 -6 -14 -16 -10 -9 3 -18 6 -21 6 -3 0 0 7 7
15 10 12 9 15 -4 15 -13 0 -16 5 -11 19 3 11 2 22 -4 25 -12 8 -24 -40 -16
-65 4 -12 2 -19 -7 -19 -12 0 -48 -34 -48 -45 0 -3 7 -5 15 -5 8 0 15 -4 15
-10 0 -5 10 -10 23 -10 46 0 59 -27 37 -73 -24 -48 -93 -51 -98 -4 -3 21 -8
27 -19 23 -8 -3 -32 -3 -54 0 -35 6 -37 8 -22 19 16 12 15 14 -12 20 -55 13
-106 26 -121 32 -11 4 -15 0 -12 -13 4 -24 -37 -71 -47 -54 -4 6 -16 8 -27 4
-16 -5 -19 -2 -16 13 2 11 11 17 23 16 26 -2 55 15 55 32 0 8 -7 15 -17 15
-23 0 -12 9 18 13 40 6 36 34 -8 46 -21 6 -46 11 -55 11 -10 0 -18 3 -18 8 1
18 20 30 83 52 52 18 70 21 79 12 18 -18 65 -15 72 4 9 25 -1 30 -34 17 -24
-9 -33 -8 -45 3 -20 20 -2 47 42 65 41 16 42 37 3 52 -18 7 -28 17 -26 24 3 8
-2 13 -14 13 -14 0 -18 -5 -13 -16 4 -11 2 -15 -7 -12 -7 2 -14 12 -16 21 -2
14 7 17 51 17 30 0 57 5 60 10 3 6 26 10 51 10 24 0 44 4 44 10 0 5 6 7 13 5
13 -5 54 22 46 30 -3 2 -20 0 -38 -5 -25 -7 -39 -6 -52 4 -18 12 -18 14 6 36
14 13 25 31 25 41 0 10 9 21 20 24 12 4 20 14 18 23 -1 9 1 23 5 30 14 21 -17
14 -33 -8 -17 -24 -60 -27 -60 -4 0 17 28 49 44 50 6 0 23 7 39 14 32 16 38
45 7 35 -16 -5 -20 -2 -20 18 0 19 8 28 31 36 18 6 42 11 55 11 12 0 24 4 26
10 2 5 18 11 37 12 29 3 36 -1 42 -22 7 -24 7 -24 8 -2 1 12 5 22 10 22 5 0 9
10 9 23 1 63 9 89 35 113 30 28 31 51 2 46 -18 -4 -18 7 0 51 5 13 2 17 -14
17 -12 0 -21 -6 -21 -14 0 -7 -9 -16 -20 -19 -19 -5 -24 3 -21 31 1 6 -3 12
-9 12 -5 0 -10 -4 -10 -9 0 -5 -7 -11 -15 -15 -12 -4 -13 3 -8 39 5 36 3 45
-10 45 -8 0 -17 -7 -21 -15 -7 -19 -36 -19 -36 0 0 8 9 15 20 15 25 0 25 20 0
70 -17 33 -25 40 -51 40 -30 0 -30 0 -26 51 4 41 1 53 -14 62 -11 7 -19 20
-19 29 0 10 -7 18 -15 18 -21 0 -19 8 12 41 18 18 28 41 30 64 2 32 -1 36 -28
42 -33 6 -36 15 -12 38 13 13 13 19 4 25 -9 5 -10 10 -2 14 15 10 11 87 -7
114 -8 13 -15 35 -16 50 -1 39 -28 34 -39 -7 -6 -25 -11 -31 -17 -21 -8 12 5
48 22 60 4 3 12 27 18 54 9 42 8 50 -6 60 -13 10 -14 17 -5 34 6 11 7 23 2 26
-10 7 9 87 25 101 22 20 54 74 54 92 1 10 7 29 14 42 17 31 9 71 -15 71 -10 0
-21 -4 -24 -10 -10 -16 -23 -12 -35 11 -9 16 -8 24 4 38 9 10 16 25 16 34 0 9
9 21 20 27 11 6 20 15 20 20 0 6 -9 10 -20 10 -13 0 -20 -7 -20 -20 0 -11 -6
-20 -14 -20 -16 0 -59 -53 -67 -84 -3 -11 -11 -20 -18 -18 -6 1 -21 -2 -31 -8
-21 -11 -25 -4 -14 24 3 8 11 13 18 10 15 -6 30 74 20 101 -9 23 16 47 42 41
17 -5 26 -1 34 14 9 17 8 20 -10 20 -15 0 -20 7 -20 25 0 14 5 25 10 25 6 0
10 6 10 14 0 7 10 26 21 40 21 26 21 28 4 44 -10 10 -19 13 -21 7 -2 -5 -14
-26 -26 -45 -21 -33 -23 -33 -26 -12 -2 16 8 34 32 58 20 20 36 40 36 44 0 5
3 16 7 25 5 14 2 16 -18 10 -13 -4 -30 -16 -37 -26 -18 -25 -38 -24 -45 2 -7
27 56 109 83 109 10 0 21 6 23 13 4 10 6 10 6 0 1 -15 33 -17 47 -3 11 11 64
-8 64 -22 0 -12 -28 -10 -35 2 -3 6 -14 10 -23 10 -12 0 -13 -3 -4 -12 28 -28
10 -91 -33 -115 -9 -5 -12 -17 -9 -30 6 -22 6 -22 27 -3 11 11 23 17 27 15 4
-2 33 25 64 60 32 36 64 65 72 65 8 0 14 4 14 8 0 5 11 15 25 22 19 10 25 21
25 45 0 18 7 38 16 46 8 7 22 25 30 40 14 27 13 29 -13 46 -16 10 -31 22 -35
27 -4 6 -10 3 -14 -7 -3 -9 -1 -23 5 -31 9 -11 8 -21 -6 -46 -24 -42 -34 -42
-48 -1 -10 31 -9 37 17 64 18 20 26 38 22 51 -3 14 7 34 31 60 19 22 35 47 35
55 -1 11 -8 8 -25 -11 -13 -16 -31 -28 -39 -28 -8 0 -17 -6 -19 -12 -3 -7 -6
-2 -6 13 -1 14 4 30 9 35 6 6 12 22 13 37 1 14 14 35 30 47 48 38 73 112 31
96 -7 -3 -16 -1 -19 3 -6 10 43 101 55 101 12 0 19 26 13 49 -5 21 -7 21 -24
5 -18 -16 -19 -16 -19 13 0 17 9 42 20 56 11 14 20 31 20 39 1 18 48 51 65 44
7 -2 16 0 18 7 2 7 8 9 13 4 4 -4 -2 -14 -14 -23 -41 -28 -15 -49 28 -22 16
11 22 9 34 -7 20 -26 20 -33 -2 -39 -9 -3 -23 -15 -31 -27 -12 -21 -12 -22 18
-16 40 8 61 0 61 -24 0 -27 36 -24 76 6 51 39 82 32 49 -11 -8 -10 -15 -33
-15 -49 0 -19 -7 -35 -20 -43 -12 -7 -18 -17 -15 -22 8 -13 35 -1 35 16 0 8 4
14 9 14 5 0 17 7 25 15 13 14 24 14 74 4 58 -12 60 -12 88 14 16 15 37 30 47
33 38 12 16 26 -33 22 -29 -3 -50 -1 -50 5 0 12 39 46 54 48 23 3 52 6 88 7
61 3 99 62 48 75 -13 3 -16 11 -13 31 3 14 9 29 14 32 12 7 12 41 0 48 -5 4
-21 2 -35 -4 -31 -11 -39 0 -26 35 12 33 4 65 -16 65 -21 0 -17 28 6 40 11 6
20 17 20 25 0 7 6 16 13 18 6 3 -3 6 -22 6 -33 1 -33 1 -27 39 4 23 3 32 -2
23 -7 -9 -11 -10 -17 -2 -8 14 37 76 65 91 11 6 24 19 29 29 9 16 7 17 -15 13
-14 -2 -28 -12 -32 -20 -9 -23 -40 -52 -57 -52 -25 0 -17 24 14 45 30 20 48
57 31 63 -6 2 -10 24 -10 48 0 43 4 49 74 119 63 62 75 79 78 112 2 21 11 49
20 63 8 14 16 42 17 63 0 21 7 47 15 59 12 16 13 25 4 35 -9 11 -6 20 11 41
11 15 27 38 33 52 19 39 40 61 75 75 18 8 50 28 71 44 36 30 43 31 145 35 73
3 111 0 120 -8 6 -6 39 -17 72 -25 33 -7 70 -15 83 -18 35 -8 27 19 -13 45
-19 12 -35 27 -35 32 0 14 127 13 136 -1 4 -8 26 -9 66 -5 53 6 63 5 83 -14
l23 -21 18 24 c11 14 24 33 30 43 9 15 14 16 25 8 8 -6 41 -15 74 -19 67 -8
118 -30 112 -48 -4 -14 -67 -21 -67 -7 0 6 -7 10 -15 10 -22 0 -18 -28 6 -40
11 -7 23 -9 26 -6 8 7 43 -13 43 -24 0 -13 -37 -13 -45 0 -10 15 -25 12 -32
-7 -16 -43 -74 -56 -127 -28 -20 11 -33 12 -40 5 -5 -5 -30 -10 -54 -10 -56 0
-46 -17 16 -26 72 -10 87 -19 106 -62 10 -22 28 -45 40 -51 11 -7 32 -27 44
-45 13 -19 34 -37 46 -40 13 -3 52 -33 87 -66 35 -33 80 -67 99 -76 47 -22 93
-66 146 -141 25 -34 71 -86 104 -117 58 -53 81 -97 43 -81 -31 13 -127 43
-155 49 -14 3 -50 25 -80 49 -29 24 -69 50 -88 57 -19 8 -71 49 -116 92 -83
80 -127 108 -62 41 41 -44 62 -80 50 -87 -16 -9 -130 66 -197 130 -62 59 -85
75 -85 58 0 -16 171 -171 230 -208 36 -23 74 -47 85 -54 11 -6 27 -15 35 -19
8 -4 33 -18 55 -32 22 -13 78 -45 125 -69 47 -25 111 -60 143 -78 32 -19 60
-34 62 -34 10 0 186 -89 224 -114 40 -26 59 -29 139 -27 12 1 39 -9 60 -22 21
-14 62 -27 96 -31 45 -6 59 -12 63 -26 6 -21 36 -37 41 -21 4 11 40 1 97 -27
22 -11 55 -23 72 -27 18 -3 37 -13 41 -21 5 -9 24 -17 43 -19 19 -1 48 -9 64
-15 l30 -13 -33 -10 c-29 -9 -41 -6 -86 16 -29 15 -60 27 -68 27 -9 0 -21 7
-28 15 -15 19 -57 20 -75 2 -11 -11 -9 -16 7 -26 18 -11 20 -11 15 3 -7 17 9
13 85 -24 23 -11 49 -20 57 -20 23 -1 92 -45 83 -54 -4 -4 0 -7 8 -5 20 4 92
-20 105 -35 6 -6 33 -11 61 -12 34 0 58 -6 69 -17 9 -9 23 -17 31 -17 12 0 12
5 0 35 -11 26 -12 35 -3 35 13 1 87 109 87 128 0 7 -5 20 -11 30 -17 27 27 72
70 72 17 0 31 5 31 10 0 16 -60 143 -77 162 -12 13 -12 20 -1 38 8 14 9 24 3
26 -27 11 -76 46 -81 59 -9 22 18 75 39 75 10 0 20 7 23 15 4 8 12 15 19 15
31 0 35 26 9 63 -13 20 -29 37 -34 37 -5 0 -11 9 -15 19 -3 11 -26 31 -50 46
-25 14 -45 30 -45 36 0 6 -13 36 -29 68 -21 43 -26 62 -19 75 15 27 1 76 -37
137 -19 30 -35 66 -35 82 0 16 -5 27 -14 27 -15 0 -26 21 -26 50 0 9 -7 23
-15 30 -10 8 -15 30 -15 65 0 96 -10 142 -35 153 -15 7 -24 22 -29 49 -3 21
-17 61 -31 88 -13 28 -25 56 -25 63 0 7 -5 22 -11 33 -8 16 -13 18 -25 8 -11
-9 -14 -7 -14 10 0 12 -4 20 -9 16 -10 -6 -63 37 -115 93 -20 21 -36 30 -47
27 -13 -4 -25 5 -42 32 -31 48 -84 99 -94 89 -4 -4 -2 -16 5 -26 7 -11 12 -26
12 -34 0 -21 -53 7 -74 39 -11 17 -26 25 -45 25 -15 0 -36 9 -46 20 -10 11
-42 34 -71 50 -51 30 -64 45 -64 77 0 27 103 8 179 -32 36 -19 71 -35 78 -35
7 0 13 -5 13 -10 0 -6 12 -16 28 -23 15 -6 30 -16 34 -22 5 -6 8 -6 8 2 0 13
-39 53 -52 53 -5 0 -31 16 -59 35 -28 19 -56 35 -61 35 -5 0 -22 8 -36 19 -15
10 -42 22 -59 26 -18 3 -35 10 -38 15 -4 6 -94 2 -103 -5 -2 -2 2 -12 9 -24
17 -25 7 -35 -26 -27 -29 7 -33 30 -7 45 14 9 12 10 -15 11 -50 0 -66 -9 -51
-29 12 -15 11 -15 -7 0 -21 17 -58 26 -162 35 -44 5 -63 10 -63 20 0 17 -12
18 -27 3 -17 -17 -85 13 -142 60 -26 21 -56 41 -69 45 -12 4 -45 30 -74 58
-57 55 -82 68 -135 68 -20 0 -50 4 -67 10 -17 5 -48 12 -68 15 -21 3 -44 13
-53 21 -10 10 -45 18 -98 23 -45 4 -92 13 -104 19 -12 7 -42 12 -66 12 -27 0
-49 6 -57 15 -7 8 -23 15 -36 15 -12 0 -26 5 -30 11 -4 7 -18 8 -38 4 -17 -4
-41 -8 -53 -10 -37 -5 -82 -29 -87 -45 -3 -11 -4 -11 -5 3 0 9 -8 17 -16 17
-7 0 -18 8 -23 17 -15 26 -124 47 -242 47 -72 0 -109 4 -118 13 -14 14 -54 18
-65 7 -12 -12 -81 -13 -88 -2 -6 9 -14 9 -32 -1 -18 -9 -30 -10 -44 -3 -23 13
-50 12 -84 -1z m-1384 -657 c-10 -11 -21 -17 -24 -14 -3 3 3 12 13 20 28 20
32 17 11 -6z m3132 -655 c13 -28 14 -37 3 -50 -20 -24 -37 -18 -53 23 -26 64
20 89 50 27z m63 0 c0 -8 -4 -15 -10 -15 -5 0 -10 7 -10 15 0 8 5 15 10 15 6
0 10 -7 10 -15z m26 -147 c13 -13 24 -29 24 -35 0 -19 14 -16 36 8 l19 21 5
-24 c5 -18 14 -24 40 -26 21 -2 46 -14 62 -29 22 -21 30 -24 41 -14 19 15 47
4 58 -25 4 -13 14 -24 21 -24 14 0 78 -126 78 -153 0 -28 -37 -40 -99 -32 -67
8 -253 93 -293 133 -15 15 -43 42 -62 61 -20 19 -36 38 -36 44 0 5 -13 25 -30
44 -16 18 -30 38 -30 43 0 10 56 24 69 16 5 -3 20 -2 33 3 34 14 38 13 64 -11z
m-232 -17 c17 -18 17 -22 2 -43 -22 -31 -21 -35 14 -42 19 -3 55 -30 98 -73
37 -38 79 -76 92 -85 19 -13 21 -17 8 -17 -9 -1 -18 3 -20 8 -1 5 -34 26 -73
46 -79 42 -111 68 -131 107 -8 15 -27 35 -43 44 -29 17 -45 49 -35 66 10 16
71 8 88 -11z m1556 -161 c0 -5 -4 -10 -10 -10 -5 0 -10 5 -10 10 0 6 5 10 10
10 6 0 10 -4 10 -10z m-860 -26 c0 -8 -4 -12 -10 -9 -5 3 -10 10 -10 16 0 5 5
9 10 9 6 0 10 -7 10 -16z m-130 -270 c113 -29 137 -40 145 -64 3 -8 27 -28 54
-45 27 -16 47 -33 44 -38 -2 -4 -9 -5 -14 -2 -5 3 -6 0 -3 -8 4 -10 20 -14 57
-13 66 1 73 -19 20 -60 -33 -25 -48 -29 -118 -32 l-80 -4 -77 67 c-42 37 -84
77 -93 91 -8 13 -20 24 -26 24 -21 0 -132 127 -124 141 3 4 29 0 58 -10 29
-10 99 -31 157 -47z m280 -114 c0 -5 -5 -10 -11 -10 -5 0 -7 5 -4 10 3 6 8 10
11 10 2 0 4 -4 4 -10z m-2946 -381 c-7 -11 -34 -12 -34 -1 0 14 11 21 26 15 8
-3 11 -9 8 -14z m3296 -19 c0 -5 -2 -10 -4 -10 -3 0 -8 5 -11 10 -3 6 -1 10 4
10 6 0 11 -4 11 -10z m-2920 -20 c0 -5 -4 -10 -10 -10 -5 0 -10 5 -10 10 0 6
5 10 10 10 6 0 10 -4 10 -10z m-40 -44 c0 -2 -7 -9 -15 -16 -12 -10 -15 -10
-15 4 0 9 7 16 15 16 8 0 15 -2 15 -4z m60 -16 c0 -5 -7 -10 -16 -10 -8 0 -12
5 -9 10 3 6 10 10 16 10 5 0 9 -4 9 -10z m-375 -9 c6 -1 2 -6 -8 -12 -14 -8
-15 -14 -7 -24 8 -10 6 -15 -10 -20 -11 -4 -27 -16 -35 -29 -18 -26 -73 -34
-81 -11 -4 8 -1 21 5 29 6 7 9 20 6 27 -11 29 58 50 130 40z m103 -21 c14 -24
12 -25 -58 -34 l-45 -6 24 20 c13 11 29 20 37 20 8 0 14 5 14 10 0 17 14 11
28 -10z m-12 -109 c3 -3 13 5 23 18 27 36 47 17 21 -20 -23 -31 -46 -36 -74
-16 -15 11 -16 16 -5 41 l13 28 8 -23 c5 -13 11 -26 14 -28z m356 -11 c-6 -15
-11 -19 -16 -12 -10 17 4 56 15 45 6 -6 6 -19 1 -33z m-532 -20 c0 -5 -8 -10
-17 -10 -15 0 -16 2 -3 10 19 12 20 12 20 0z m240 -202 c0 -16 -3 -19 -11 -11
-6 6 -8 16 -5 22 11 17 16 13 16 -11z m-90 -63 c0 -14 -37 -31 -47 -21 -9 8
28 47 38 40 5 -3 9 -11 9 -19z m-335 -110 c0 -29 -47 -37 -61 -10 -15 28 -7
37 29 33 24 -2 32 -8 32 -23z m265 -154 c0 -11 -4 -23 -10 -26 -5 -3 -10 -15
-10 -25 0 -13 -9 -22 -25 -26 -34 -8 -44 2 -19 20 10 8 19 18 19 23 1 13 29
53 37 53 5 0 8 -9 8 -19z m-134 -113 c8 -25 -3 -38 -32 -38 -27 0 -27 0 -15
33 11 28 38 31 47 5z m-141 -378 c-5 -14 -2 -20 9 -20 9 0 16 5 16 12 0 6 3 9
6 6 3 -3 1 -14 -5 -25 -6 -10 -16 -31 -21 -47 l-11 -29 -16 22 c-11 17 -12 26
-4 34 6 6 11 24 11 39 0 15 5 28 11 28 6 0 8 -9 4 -20z m-31 -179 c3 -5 -1
-14 -9 -21 -13 -10 -15 -9 -15 9 0 21 14 28 24 12z m-1479 -618 c-6 -54 -25
-99 -25 -61 0 23 22 118 28 118 2 0 1 -26 -3 -57z m-55 -243 c0 -11 -7 -20
-15 -20 -17 0 -18 2 -9 24 9 23 24 20 24 -4z m1642 -405 c-2 -15 -8 -23 -13
-18 -10 10 0 55 11 48 4 -2 5 -16 2 -30z m-44 -88 c-2 -1 -22 -20 -46 -42 -23
-21 -42 -34 -42 -28 0 6 7 18 15 27 8 8 15 19 15 25 0 6 9 11 19 11 11 0 23
10 27 23 7 19 8 20 12 4 2 -10 2 -19 0 -20z m208 -43 c-5 -18 -10 -24 -17 -17
-6 6 -7 22 -3 37 4 18 10 24 17 17 5 -5 6 -22 3 -37z m94 26 c0 -5 -5 -10 -11
-10 -5 0 -7 5 -4 10 3 6 8 10 11 10 2 0 4 -4 4 -10z m-222 -46 c28 -19 20 -36
-11 -25 -13 5 -35 7 -50 4 -29 -6 -35 5 -15 25 17 17 49 15 76 -4z m206 -28
c-10 -8 -21 -12 -24 -10 -5 6 21 24 34 24 6 0 1 -6 -10 -14z m70 -21 c-9 -14
-20 -22 -25 -19 -5 3 -9 -1 -10 -8 0 -10 -2 -10 -6 0 -2 7 6 21 19 32 32 27
42 25 22 -5z m-334 0 c0 -17 -2 -18 -24 -9 -23 9 -20 24 4 24 11 0 20 -7 20
-15z m-320 1 c0 -11 -19 -15 -25 -6 -3 5 1 10 9 10 9 0 16 -2 16 -4z m540 -12
c0 -8 -5 -12 -10 -9 -6 4 -8 11 -5 16 9 14 15 11 15 -7z m-590 -14 c0 -5 -4
-11 -10 -15 -5 -3 -7 -11 -4 -18 2 -7 -2 -21 -10 -32 -13 -18 -16 -18 -29 -5
-8 8 -17 29 -20 45 -5 29 -4 30 34 32 21 0 39 -3 39 -7z m350 -10 c0 -5 -4
-10 -10 -10 -5 0 -10 5 -10 10 0 6 5 10 10 10 6 0 10 -4 10 -10z m-312 -24
c-7 -8 -15 -12 -17 -11 -5 6 10 25 20 25 5 0 4 -6 -3 -14z m72 -46 c0 -5 -4
-10 -9 -10 -6 0 -13 5 -16 10 -3 6 1 10 9 10 9 0 16 -4 16 -10z m11 -74 c-7
-8 -11 -20 -10 -28 5 -42 -16 -50 -56 -20 l-23 17 26 22 c31 26 83 33 63 9z
m164 -46 c3 -5 1 -10 -4 -10 -6 0 -11 5 -11 10 0 6 2 10 4 10 3 0 8 -4 11 -10z
m-290 -140 c-3 -5 -1 -10 4 -10 6 0 11 5 11 10 0 13 33 13 47 -1 8 -8 7 -16
-4 -28 -14 -16 -17 -17 -49 -2 -35 16 -46 41 -18 41 8 0 12 -4 9 -10z m-1065
-9 c0 -6 -4 -13 -10 -16 -5 -3 -10 1 -10 9 0 9 5 16 10 16 6 0 10 -4 10 -9z
m290 -91 c0 -5 -4 -10 -10 -10 -5 0 -10 5 -10 10 0 6 5 10 10 10 6 0 10 -4 10
-10z m840 -39 c0 -5 21 -12 46 -16 45 -6 45 -7 28 -26 -17 -18 -17 -20 1 -33
17 -12 17 -13 0 -20 -14 -5 -29 5 -62 40 -46 51 -52 64 -28 64 8 0 15 -4 15
-9z m-910 -96 c0 -8 6 -15 13 -15 19 0 50 -37 42 -49 -11 -18 -32 -12 -38 11
-4 12 -9 19 -13 15 -12 -12 -32 13 -27 33 6 23 23 27 23 5z m1040 5 c0 -5 -7
-7 -15 -4 -8 4 -15 8 -15 10 0 2 7 4 15 4 8 0 15 -4 15 -10z m-1033 -122 c-3
-8 -6 -5 -6 6 -1 11 2 17 5 13 3 -3 4 -12 1 -19z m59 -27 c-13 -20 -26 -11
-26 16 0 25 1 26 16 11 9 -9 13 -21 10 -27z m1654 -27 c0 -2 -9 -4 -20 -4 -11
0 -20 4 -20 9 0 5 9 7 20 4 11 -3 20 -7 20 -9z m-1677 -84 c13 0 28 5 35 12 9
9 12 9 12 0 0 -7 -4 -12 -8 -12 -5 0 -7 -13 -4 -30 3 -22 0 -30 -11 -30 -20 0
-47 27 -47 46 0 8 -7 14 -15 14 -9 0 -12 6 -8 16 5 15 7 15 15 0 5 -9 19 -16
31 -16z m-202 -61 c-9 -22 -10 -22 -10 -3 -1 11 2 24 6 27 12 12 14 0 4 -24z
m1459 21 l25 -7 -25 -10 c-25 -11 -50 -1 -50 18 0 10 15 10 50 -1z m590 -30
c0 -5 -7 -10 -16 -10 -8 0 -12 5 -9 10 3 6 10 10 16 10 5 0 9 -4 9 -10z m-50
-20 c0 -5 -4 -10 -10 -10 -5 0 -10 5 -10 10 0 6 5 10 10 10 6 0 10 -4 10 -10z
m-480 -89 c0 -5 8 -11 18 -14 12 -3 10 -6 -11 -12 -30 -8 -54 5 -43 24 9 13
36 15 36 2z m118 2 c-10 -2 -28 -2 -40 0 -13 2 -5 4 17 4 22 1 32 -1 23 -4z
m-1768 -121 c0 -13 -3 -12 -15 4 -19 25 -19 40 0 24 8 -7 15 -20 15 -28z
m2900 -101 c0 -11 -4 -23 -10 -26 -5 -3 -10 1 -10 9 0 10 -9 16 -22 17 -22 0
-22 1 -3 9 32 14 45 11 45 -9z m-700 -101 c0 -5 -7 -10 -15 -10 -8 0 -15 5
-15 10 0 6 7 10 15 10 8 0 15 -4 15 -10z m-5 -30 c3 -5 -3 -10 -14 -10 -10 0
-26 -3 -35 -6 -9 -3 -16 -1 -16 4 0 6 10 13 23 15 12 2 25 5 29 6 4 0 10 -3
13 -9z m711 -69 c10 -13 16 -14 37 -2 19 10 29 10 46 2 21 -11 30 -41 12 -41
-15 0 -19 -39 -5 -51 11 -9 14 -7 14 10 0 12 6 21 16 21 15 0 55 -18 64 -29 7
-9 42 -30 68 -41 13 -6 35 -24 50 -42 15 -18 35 -39 45 -47 18 -16 24 -36 7
-26 -5 3 -10 1 -10 -4 0 -6 6 -11 14 -11 7 0 26 -17 42 -37 15 -21 33 -41 38
-45 7 -5 6 -11 -4 -18 -23 -15 -38 -12 -45 10 -8 25 -21 26 -34 3 -10 -17 -10
-16 -11 2 0 33 -29 67 -54 63 -12 -1 -34 7 -48 18 -32 25 -79 21 -96 -7 -8
-13 -9 -19 -2 -19 6 0 16 -13 21 -29 6 -17 18 -32 27 -34 10 -3 5 -5 -11 -6
-33 -1 -45 -26 -27 -54 7 -12 9 -22 4 -24 -63 -22 -78 -52 -36 -71 23 -10 28
-17 25 -36 -4 -17 1 -28 16 -38 26 -16 27 -35 2 -43 -35 -11 -35 -42 -2 -81
17 -19 31 -41 31 -49 0 -22 20 -28 34 -10 11 16 14 15 31 -11 10 -16 33 -42
52 -58 27 -22 31 -31 22 -42 -15 -18 -49 -1 -49 25 0 19 -23 35 -34 24 -3 -4
-6 -15 -6 -26 0 -29 -23 -15 -32 21 -9 34 -28 53 -28 28 0 -9 5 -16 10 -16 6
0 8 -10 5 -23 -5 -17 1 -30 19 -48 29 -27 33 -39 11 -39 -8 0 -15 -4 -15 -10
0 -19 -32 -10 -37 10 -3 11 -14 20 -24 20 -24 0 -24 -5 1 -28 12 -11 23 -37
25 -58 5 -35 2 -41 -25 -56 -17 -10 -32 -13 -35 -7 -4 5 -10 7 -15 4 -14 -8
-19 22 -10 55 8 28 6 32 -16 40 -34 13 -34 13 -34 -10 0 -11 -4 -20 -10 -20
-5 0 -12 -17 -16 -38 -4 -28 -14 -42 -36 -55 -16 -9 -34 -15 -39 -11 -11 6 21
53 37 54 18 0 24 38 8 51 -10 8 -20 6 -44 -11 -16 -12 -30 -17 -30 -11 0 5
-19 9 -42 8 -34 -2 -42 1 -39 13 3 8 5 31 5 50 1 31 -2 35 -26 38 -16 2 -28 8
-28 13 0 5 -9 9 -20 9 -11 0 -20 3 -21 8 -1 4 -3 29 -5 57 -3 28 -12 56 -21
65 -14 14 -15 13 -9 -5 6 -19 5 -19 -8 -2 -16 21 -26 22 -40 1 -13 -17 -46 -9
-46 11 0 7 -7 15 -15 19 -24 9 -19 39 5 31 14 -4 20 -2 20 9 0 8 -4 18 -10 21
-18 11 -11 21 25 38 19 9 35 21 35 27 0 5 8 10 18 10 15 0 15 2 2 10 -13 9
-12 12 4 25 16 12 18 19 8 40 -6 13 -9 31 -6 39 7 18 -16 32 -26 16 -5 -8 -13
-3 -26 19 -10 17 -23 31 -30 31 -6 0 -19 9 -29 20 -16 18 -16 20 -1 35 15 15
23 65 10 65 -3 0 -14 -4 -24 -10 -39 -21 -63 15 -44 64 5 13 9 14 20 5 8 -6
23 -9 34 -6 11 3 23 1 26 -4 3 -5 12 -9 20 -9 11 0 13 6 9 21 -5 15 -2 22 14
26 11 3 18 9 15 14 -3 5 4 9 15 9 12 0 21 6 21 14 0 9 -8 12 -25 8 -15 -2 -25
0 -25 7 0 6 12 11 27 11 24 0 25 1 10 13 -21 15 -12 57 13 57 9 0 29 9 44 21
14 11 30 18 35 15 5 -4 12 0 14 6 4 10 8 10 15 -1 8 -11 14 -10 32 7 12 11 40
24 61 27 22 4 39 10 39 15 0 13 44 -2 56 -19z m129 -31 c3 -5 1 -10 -4 -10 -6
0 -11 5 -11 10 0 6 2 10 4 10 3 0 8 -4 11 -10z m-712 -17 c-7 -2 -21 -2 -30 0
-10 3 -4 5 12 5 17 0 24 -2 18 -5z m-184 -22 c9 -6 11 -16 6 -27 -5 -13 -9
-15 -12 -6 -3 6 -10 12 -16 12 -7 0 6 -16 27 -36 33 -30 45 -35 72 -31 33 6
58 -6 67 -33 3 -8 6 4 6 28 1 44 17 58 23 20 2 -13 9 -23 16 -23 7 0 17 -7 22
-15 12 -20 -6 -40 -37 -40 -16 0 -29 -10 -41 -30 -11 -19 -25 -30 -39 -30 -13
0 -23 4 -23 8 0 5 -11 14 -24 21 -15 9 -22 19 -19 31 4 16 -12 29 -46 36 -8 1
-23 12 -34 23 -16 16 -18 23 -8 35 9 10 9 16 1 21 -8 5 -6 13 6 26 19 21 32
23 53 10z m222 -11 c5 0 9 -7 9 -15 0 -8 -7 -15 -16 -15 -8 0 -12 -4 -9 -10
13 -21 -7 -31 -22 -10 -10 14 -21 19 -35 14 -15 -5 -19 -2 -16 12 3 19 43 35
66 28 8 -2 18 -4 23 -4z m204 -40 c3 -5 -3 -10 -14 -10 -12 0 -21 5 -21 10 0
6 6 10 14 10 8 0 18 -4 21 -10z m-108 -32 c-3 -8 -6 -5 -6 6 -1 11 2 17 5 13
3 -3 4 -12 1 -19z m-397 -42 c0 -3 -4 -8 -10 -11 -5 -3 -10 -1 -10 4 0 6 5 11
10 11 6 0 10 -2 10 -4z m1160 -100 c0 -3 -4 -8 -10 -11 -5 -3 -10 -1 -10 4 0
6 5 11 10 11 6 0 10 -2 10 -4z m170 -91 c7 -9 10 -19 6 -22 -8 -9 -38 9 -44
25 -5 17 23 15 38 -3z m396 -142 c-11 -36 -88 -103 -130 -114 -23 -6 -48 -17
-57 -25 -14 -13 -17 -13 -22 0 -7 19 -1 23 61 41 46 14 112 59 112 76 0 11 33
50 38 44 2 -2 1 -12 -2 -22z m-1316 -42 c0 -5 -7 -11 -15 -15 -15 -5 -20 5 -8
17 9 10 23 9 23 -2z m1100 -101 c0 -5 -13 -25 -30 -43 -16 -19 -30 -39 -30
-43 0 -5 -13 -25 -30 -44 -16 -19 -32 -47 -35 -62 -4 -15 -15 -44 -25 -65 -25
-53 -52 -178 -44 -208 3 -14 2 -25 -4 -25 -5 0 -9 -8 -8 -17 0 -10 -5 -17 -12
-15 -8 1 -11 -2 -8 -7 3 -5 3 -23 0 -40 -5 -21 -12 -31 -25 -31 -14 0 -19 -7
-19 -26 0 -33 -17 -22 -25 16 -8 35 2 57 18 41 6 -6 17 -11 25 -11 10 0 8 7
-7 28 -11 16 -23 40 -26 54 -4 14 -15 28 -26 31 -10 3 -19 10 -19 17 0 6 5 8
10 5 6 -3 19 -3 31 0 16 6 18 9 8 22 -10 12 -10 16 1 23 18 11 -1 57 -27 67
-29 11 -47 53 -23 53 6 0 10 -6 10 -14 0 -21 15 -27 42 -17 12 6 17 10 11 10
-7 1 -13 10 -13 21 0 11 -5 20 -12 20 -6 0 -4 6 6 13 19 14 15 57 -5 57 -5 0
-18 8 -28 18 -15 14 -16 21 -6 40 11 20 13 21 19 6 6 -16 8 -16 25 0 13 12 21
14 26 6 8 -13 43 -4 67 17 9 8 22 12 28 8 6 -3 9 -3 8 2 -4 10 33 48 47 48 18
1 70 29 78 42 9 15 27 17 27 3z m-282 -228 c2 -7 -3 -12 -12 -12 -9 0 -16 7
-16 16 0 17 22 14 28 -4z m-108 -502 c0 -5 -5 -10 -11 -10 -5 0 -7 5 -4 10 3
6 8 10 11 10 2 0 4 -4 4 -10z m-35 -417 c0 -99 -25 -105 -107 -28 -42 40 -45
41 -76 19 l-22 -15 20 -26 c14 -18 17 -29 9 -33 -6 -4 -16 -18 -23 -31 -7 -16
-22 -25 -41 -27 -31 -3 -33 -10 -26 -106 1 -4 8 -6 16 -3 15 6 59 -45 49 -56
-3 -3 -3 -28 1 -55 5 -37 12 -51 25 -55 33 -9 57 -62 64 -145 5 -64 3 -88 -15
-142 -12 -36 -23 -71 -25 -78 -7 -25 -22 -11 -27 26 -14 85 -25 123 -40 140
-8 9 -25 49 -37 87 -38 121 -50 157 -59 174 -5 9 -12 34 -15 56 -13 82 -10 80
-86 63 -14 -3 -47 75 -49 114 -1 22 173 110 209 106 19 -2 26 2 28 19 3 17 12
24 40 28 20 3 55 12 77 19 22 8 56 13 75 13 l35 -2 0 -62z m-4505 -418 c10
-12 10 -19 2 -27 -15 -15 3 -38 29 -38 12 0 19 -7 19 -20 0 -13 7 -20 19 -20
31 0 50 -11 45 -25 -3 -7 3 -16 15 -20 28 -9 34 -36 18 -81 -20 -53 -41 -126
-42 -144 -1 -14 -12 -59 -21 -89 -3 -10 -8 -10 -18 -2 -10 8 -19 6 -39 -9 -32
-26 -34 -26 -52 10 -20 39 -19 76 2 84 13 5 14 9 5 15 -18 11 -18 38 -3 93 16
58 9 91 -24 106 -31 14 -32 30 -1 63 16 18 21 30 15 40 -5 8 -9 26 -9 40 0 40
18 51 40 24z m3939 -150 c-10 -33 -13 -37 -19 -20 -15 43 -12 117 7 137 18 20
18 19 21 -28 2 -27 -2 -67 -9 -89z m-3449 -55 c10 -38 8 -125 -3 -136 -4 -4
-7 -18 -7 -31 0 -15 -4 -22 -11 -18 -6 4 -9 26 -8 49 2 22 -5 66 -14 96 -11
34 -15 67 -11 88 l7 35 18 -24 c11 -13 23 -40 29 -59z m3212 -41 c109 -22 132
-31 165 -66 l32 -36 6 29 c11 47 14 54 24 54 12 0 12 -101 1 -121 -7 -11 -10
-10 -16 4 -12 31 -21 18 -32 -49 -6 -37 -13 -69 -16 -72 -3 -3 -14 1 -23 10
-63 53 -172 89 -246 81 -35 -4 -46 -1 -62 17 l-20 23 25 -8 c14 -4 28 -12 31
-17 8 -13 22 8 14 21 -3 5 -1 12 5 16 6 4 8 11 4 16 -3 5 -10 7 -15 3 -5 -3
-21 2 -35 10 -18 13 -29 14 -44 6 -13 -7 -26 -7 -37 -1 -15 8 -12 11 17 26 19
9 55 27 80 40 51 28 68 29 142 14z"/>
<path d="M4035 2530 c-8 -12 20 -24 35 -15 6 3 8 11 5 16 -8 12 -32 12 -40 -1z"/>
<path d="M4045 2460 c-3 -5 -2 -22 2 -37 4 -15 7 -37 7 -48 1 -11 9 -21 20
-23 16 -3 18 0 11 19 -4 13 -9 41 -12 62 -5 36 -16 47 -28 27z"/>
<path d="M4480 2340 c0 -5 5 -10 10 -10 6 0 10 5 10 10 0 6 -4 10 -10 10 -5 0
-10 -4 -10 -10z"/>
<path d="M4415 2250 c-3 -5 1 -10 10 -10 9 0 13 5 10 10 -3 6 -8 10 -10 10 -2
0 -7 -4 -10 -10z"/>
<path d="M4772 1603 c2 -9 11 -17 21 -19 18 -2 18 -2 1 17 -21 23 -26 24 -22
2z"/>
<path d="M5381 9414 c0 -11 3 -14 6 -6 3 7 2 16 -1 19 -3 4 -6 -2 -5 -13z"/>
<path d="M5422 9376 c10 -7 29 -29 41 -48 13 -19 33 -45 45 -59 11 -13 29 -35
40 -49 22 -27 44 -20 24 8 -7 9 -20 34 -29 55 -9 20 -20 38 -25 38 -4 1 -12 3
-18 4 -5 1 -15 3 -22 4 -9 1 -9 4 0 13 17 17 -14 48 -47 48 -24 -1 -24 -2 -9
-14z"/>
<path d="M6450 8846 c0 -8 7 -16 15 -20 9 -3 15 0 15 8 0 8 -7 16 -15 20 -9 3
-15 0 -15 -8z"/>
<path d="M4860 8203 c0 -12 89 -57 97 -49 7 7 -38 45 -54 46 -6 0 -18 3 -27 6
-9 3 -16 2 -16 -3z"/>
<path d="M6699 6869 c-20 -12 -2 -26 45 -35 29 -5 38 -4 34 6 -6 18 -63 39
-79 29z"/>
<path d="M4075 6840 c-3 -5 -1 -10 4 -10 6 0 11 5 11 10 0 6 -2 10 -4 10 -3 0
-8 -4 -11 -10z"/>
<path d="M6850 6806 c0 -21 32 -29 42 -12 5 9 16 13 26 9 9 -3 14 -2 9 2 -13
15 -77 16 -77 1z"/>
<path d="M4012 6795 c-41 -22 -48 -33 -31 -50 18 -19 87 -2 96 23 4 9 11 20
17 24 6 4 2 7 -9 6 -11 0 -27 2 -35 5 -8 3 -26 -1 -38 -8z"/>
<path d="M3797 6774 c-14 -15 -6 -34 14 -34 14 0 19 5 17 17 -3 18 -20 27 -31
17z"/>
<path d="M1760 6747 c-52 -18 -76 -33 -120 -78 -30 -30 -63 -66 -72 -80 -9
-13 -28 -37 -41 -54 -32 -41 -57 -140 -64 -256 -6 -95 5 -159 28 -159 5 0 9
-9 9 -20 0 -45 23 -11 60 87 7 18 41 60 77 95 36 35 79 78 96 96 17 17 36 32
44 32 7 0 20 11 28 24 9 13 27 27 40 30 14 4 29 15 35 26 6 11 21 20 33 20 12
0 29 4 37 9 8 6 19 7 25 3 5 -4 19 -7 30 -7 16 0 19 -6 17 -32 -2 -18 2 -41 7
-52 8 -14 8 -27 0 -44 -9 -20 -8 -35 6 -70 15 -40 22 -47 62 -59 25 -7 49 -22
55 -33 6 -11 20 -30 31 -42 12 -13 17 -29 13 -39 -6 -15 -18 -16 -104 -11 -53
3 -124 14 -157 23 -33 10 -87 19 -120 21 -52 4 -63 1 -79 -16 -11 -12 -27 -21
-37 -21 -20 0 -48 -43 -74 -112 -15 -41 -16 -58 -6 -142 6 -52 19 -114 30
-138 19 -45 67 -108 81 -108 5 0 7 33 5 74 -2 63 0 77 16 92 12 10 17 25 14
35 -5 14 1 19 32 24 21 4 56 14 78 23 22 9 43 16 47 15 4 -2 17 11 29 28 17
24 27 29 52 27 42 -4 45 -23 8 -57 -31 -29 -32 -31 -30 -121 1 -100 -5 -113
-63 -126 -19 -4 -28 -13 -28 -26 0 -10 -7 -21 -15 -24 -19 -8 -21 -83 -2 -85
6 -1 33 -1 59 1 30 1 58 -5 76 -16 28 -16 30 -22 32 -78 3 -109 5 -121 20
-124 9 -1 21 10 28 28 8 18 21 30 33 30 26 0 24 -10 -11 -47 -17 -18 -30 -35
-30 -38 0 -23 130 -95 170 -95 17 0 20 7 20 48 -1 53 -29 107 -73 143 -58 44
-67 107 -42 261 15 87 18 95 55 129 22 20 40 44 40 52 0 26 41 47 91 47 65 0
101 15 122 51 17 31 24 89 10 89 -5 0 -19 18 -33 40 -18 30 -31 40 -50 40 -21
0 -28 9 -47 59 -13 32 -23 72 -23 88 0 19 -9 38 -25 53 -14 13 -25 33 -25 45
0 12 -7 30 -15 41 -8 10 -15 27 -15 37 0 9 -3 17 -8 17 -9 0 -49 77 -57 110
-7 31 -126 159 -180 193 -22 14 -67 30 -99 36 -70 13 -56 14 -136 -12z"/>
<path d="M3510 6620 c-3 -16 -18 -31 -40 -42 -19 -10 -35 -22 -34 -28 1 -5 2
-17 3 -25 1 -11 8 -14 29 -9 44 10 54 26 50 80 -2 32 -5 41 -8 24z"/>
<path d="M3522 6502 c-27 -24 -29 -30 -20 -52 8 -19 12 -21 16 -10 3 8 8 17
11 20 16 13 40 60 33 64 -5 3 -23 -7 -40 -22z"/>
<path d="M3128 6103 c7 -3 16 -2 19 1 4 3 -2 6 -13 5 -11 0 -14 -3 -6 -6z"/>
<path d="M3349 6043 c-32 -25 -45 -42 -42 -54 5 -17 47 -34 62 -24 9 5 61 100
61 110 0 15 -41 -1 -81 -32z"/>
<path d="M1470 5950 c-7 -44 -10 -102 -6 -129 11 -85 56 -242 79 -275 12 -17
22 -31 22 -32 0 -1 12 -4 28 -8 22 -5 29 -3 36 16 8 22 -7 78 -21 78 -4 0 -8
8 -8 17 0 9 -7 24 -15 33 -22 24 -75 239 -75 305 0 38 -10 75 -20 75 -4 0 -13
-36 -20 -80z"/>
<path d="M3134 5976 c-28 -21 -14 -27 32 -14 33 9 36 12 19 19 -28 11 -29 11
-51 -5z"/>
<path d="M3280 5965 c0 -8 5 -15 10 -15 6 0 10 7 10 15 0 8 -4 15 -10 15 -5 0
-10 -7 -10 -15z"/>
<path d="M3146 5904 c-11 -28 -6 -44 12 -44 23 0 42 19 42 42 0 23 -45 25 -54
2z"/>
<path d="M3348 5901 c-21 -21 -14 -31 19 -31 18 0 23 5 23 25 0 29 -17 31 -42
6z"/>
<path d="M3268 5860 c-20 -15 -28 -16 -38 -7 -10 10 -12 8 -7 -5 4 -12 1 -18
-8 -18 -8 0 -15 -9 -15 -20 0 -11 6 -20 13 -19 23 1 102 55 105 72 5 23 -20
22 -50 -3z"/>
<path d="M4768 5733 c7 -3 16 -2 19 1 4 3 -2 6 -13 5 -11 0 -14 -3 -6 -6z"/>
<path d="M4870 5730 c-9 -6 -10 -10 -3 -10 6 0 15 5 18 10 8 12 4 12 -15 0z"/>
<path d="M5070 5711 c0 -6 -8 -11 -19 -11 -10 0 -24 -6 -31 -14 -6 -8 -17 -13
-23 -11 -7 2 -28 6 -47 9 -27 5 -31 3 -20 -5 11 -8 6 -9 -20 -3 -19 4 -44 7
-55 6 -208 -3 -235 -5 -235 -18 0 -19 -16 -18 -24 2 -5 14 -19 15 -89 10 -111
-7 -108 -7 -105 -30 3 -19 -2 -21 -47 -22 -78 -2 -87 -3 -81 -13 3 -4 19 -11
36 -15 29 -5 35 -29 7 -25 -32 4 -39 -2 -35 -26 4 -21 1 -25 -18 -25 -13 0
-24 -4 -24 -10 0 -5 11 -10 25 -10 14 0 29 -8 34 -19 9 -17 16 -18 51 -9 30 8
44 7 55 -2 17 -14 21 -60 5 -60 -5 0 -10 -9 -10 -19 0 -11 -6 -21 -12 -24 -7
-2 -10 -8 -6 -12 5 -5 17 0 28 10 13 11 25 15 37 10 15 -7 15 -9 3 -12 -20 -5
-36 -42 -32 -76 2 -19 8 -27 17 -23 7 2 16 -2 19 -10 9 -24 8 -26 -13 -19 -19
6 -36 -18 -25 -36 3 -5 0 -9 -5 -9 -24 0 -9 -19 19 -25 33 -7 40 -29 14 -39
-15 -6 -14 -9 6 -31 16 -17 27 -22 38 -16 8 5 28 5 43 1 15 -5 30 -6 33 -2 3
3 6 0 6 -6 0 -7 -6 -12 -12 -13 -7 0 -4 -4 7 -9 11 -5 15 -9 9 -9 -6 -1 -10
-22 -10 -51 1 -40 5 -51 22 -59 24 -10 40 -63 17 -54 -7 3 -13 0 -13 -7 0 -6
-5 -8 -10 -5 -6 4 -8 11 -5 16 4 5 3 15 -1 21 -6 9 -10 5 -15 -12 -11 -38 -10
-62 1 -55 6 3 10 -3 10 -14 0 -11 6 -26 13 -33 6 -7 19 -26 27 -42 21 -40 114
-122 155 -137 19 -7 35 -18 35 -24 0 -14 36 -31 84 -40 21 -4 36 -13 36 -21 0
-8 5 -14 10 -14 6 0 10 7 10 15 0 19 11 19 36 0 17 -13 17 -14 2 -15 -22 0
-24 -20 -3 -20 9 0 27 -7 40 -16 16 -11 25 -12 25 -5 0 8 5 9 19 1 26 -13 61
-13 61 2 0 7 7 5 18 -5 17 -15 22 -15 72 4 29 11 59 18 66 15 8 -3 14 -2 14 2
0 11 63 46 78 43 17 -3 68 34 116 84 21 22 35 34 32 28 -4 -8 -1 -13 8 -13 9
0 15 3 15 8 -4 22 4 34 26 44 16 7 24 17 20 26 -3 9 0 12 9 9 8 -3 16 -1 19 6
2 6 18 12 36 13 18 1 44 7 57 14 19 11 26 11 39 0 12 -10 15 -10 15 0 0 8 8
10 23 5 55 -16 79 -15 84 4 6 23 42 34 60 19 15 -12 43 6 43 28 0 8 11 14 26
14 15 0 45 9 68 19 23 10 61 25 85 32 47 14 83 42 94 72 4 10 3 16 -2 13 -5
-4 -7 3 -4 14 3 11 9 20 14 20 5 0 4 9 -3 20 -11 17 -10 22 2 30 13 8 11 13
-10 33 -14 12 -33 21 -42 19 -15 -3 -18 4 -18 37 0 23 -4 41 -10 41 -5 0 -10
7 -10 16 0 23 -62 79 -121 109 -19 10 -40 26 -46 36 -18 25 -110 68 -133 62
-11 -3 -20 0 -20 6 0 6 -9 11 -21 11 -11 0 -33 6 -47 14 -15 8 -40 18 -57 22
-16 4 -33 8 -37 9 -5 2 -15 3 -24 4 -8 0 -13 5 -10 10 3 4 -9 21 -26 36 -28
25 -34 27 -66 17 -29 -9 -39 -9 -52 3 -9 8 -30 15 -46 16 -16 1 -40 5 -54 9
-21 8 -19 9 14 7 22 -1 41 3 43 9 6 17 -68 74 -95 74 -17 0 -22 4 -18 15 3 8
-2 19 -12 24 -19 10 -153 31 -192 30 -14 -1 -35 2 -47 6 -15 5 -23 3 -23 -4z
m-506 -57 c17 -7 22 -34 7 -34 -23 0 -62 21 -56 30 7 11 26 13 49 4z m-211
-131 c-7 -2 -19 -2 -25 0 -7 3 -2 5 12 5 14 0 19 -2 13 -5z m634 -199 c-9 -9
-28 6 -21 18 4 6 10 6 17 -1 6 -6 8 -13 4 -17z m64 -4 c5 0 9 -9 9 -20 0 -11
-4 -20 -10 -20 -5 0 -10 5 -10 10 0 6 -5 9 -12 8 -6 -2 -14 6 -16 16 -3 14 0
17 13 12 9 -3 21 -6 26 -6z m75 -32 c-10 -6 -20 -7 -24 -3 -9 8 20 25 31 18 5
-3 2 -10 -7 -15z m74 -27 c0 -5 17 -7 38 -4 33 4 42 0 82 -36 34 -31 52 -41
79 -41 25 0 42 -8 66 -32 18 -18 41 -38 51 -44 17 -10 15 -13 -21 -22 -22 -6
-67 -14 -100 -17 -56 -7 -59 -6 -40 9 20 15 20 15 -2 16 -12 0 -23 -5 -25 -11
-4 -13 -58 9 -58 23 0 5 -4 7 -9 4 -11 -7 -85 12 -205 52 -87 30 -133 54 -82
45 14 -3 35 2 47 11 16 10 34 14 59 10 29 -5 40 -1 63 20 28 26 57 34 57 17z
m190 -26 c0 -8 -4 -15 -10 -15 -5 0 -10 7 -10 15 0 8 5 15 10 15 6 0 10 -7 10
-15z m-413 -91 c-3 -3 -12 -4 -19 -1 -8 3 -5 6 6 6 11 1 17 -2 13 -5z m-54
-34 c23 -7 69 -20 102 -30 33 -9 96 -26 140 -36 111 -25 143 -40 165 -77 20
-32 27 -77 12 -77 -4 0 -13 10 -21 22 -13 21 -14 21 -27 3 -12 -17 -14 -17
-14 -2 0 20 -1 20 -35 7 -15 -6 -32 -7 -38 -3 -7 4 -27 6 -46 4 -18 -1 -36 1
-40 6 -3 4 -32 17 -64 27 -32 11 -67 30 -77 43 -12 15 -28 23 -48 23 -17 0
-34 4 -37 10 -3 5 -19 7 -35 3 -23 -4 -30 -2 -30 10 0 9 -12 23 -27 31 -16 8
-28 18 -28 23 0 4 -6 7 -12 7 -20 -3 -15 14 5 18 27 7 108 0 155 -12z m-268
-70 c3 -5 1 -10 -4 -10 -6 0 -11 5 -11 10 0 6 2 10 4 10 3 0 8 -4 11 -10z
m545 -136 c0 -8 -5 -12 -10 -9 -6 4 -8 11 -5 16 9 14 15 11 15 -7z m173 -34
c4 0 7 -5 7 -10 0 -7 -13 -8 -36 -4 -26 5 -39 3 -45 -7 -8 -12 -11 -12 -19 1
-17 26 -11 30 38 25 26 -2 50 -4 55 -5z"/>
<path d="M5045 5190 c3 -5 12 -10 20 -10 8 0 17 5 20 10 4 6 -5 10 -20 10 -15
0 -24 -4 -20 -10z"/>
<path d="M5115 5170 c-3 -6 1 -7 9 -4 18 7 21 14 7 14 -6 0 -13 -4 -16 -10z"/>
<path d="M5330 5123 c-13 -15 -12 -16 4 -10 10 4 20 7 22 7 2 0 4 5 4 10 0 15
-13 12 -30 -7z"/>
<path d="M5440 5130 c0 -5 5 -10 11 -10 5 0 7 5 4 10 -3 6 -8 10 -11 10 -2 0
-4 -4 -4 -10z"/>
<path d="M1795 5560 c3 -5 8 -10 11 -10 2 0 4 5 4 10 0 6 -5 10 -11 10 -5 0
-7 -4 -4 -10z"/>
<path d="M4320 5450 c0 -5 19 -10 43 -9 36 1 38 2 17 9 -36 12 -60 12 -60 0z"/>
<path d="M4363 5326 c9 -7 17 -18 17 -25 0 -6 5 -11 10 -11 6 0 10 5 10 11 0
15 -26 39 -42 39 -9 -1 -7 -5 5 -14z"/>
<path d="M1975 5093 c-5 -13 8 -32 50 -70 56 -53 81 -63 103 -41 18 18 14 28
-10 28 -42 0 -63 11 -76 38 -6 14 -12 31 -12 38 0 11 -21 24 -40 24 -4 0 -11
-8 -15 -17z"/>
<path d="M1900 5036 c0 -2 7 -9 15 -16 12 -10 15 -10 15 4 0 9 -7 16 -15 16
-8 0 -15 -2 -15 -4z"/>
<path d="M1826 4907 c-18 -38 -8 -52 26 -37 19 9 24 18 20 35 -7 37 -28 37
-46 2z"/>
<path d="M6700 4831 c-8 -5 -36 -11 -62 -14 -25 -4 -63 -18 -83 -31 -20 -14
-45 -28 -56 -31 -10 -4 -19 -11 -19 -16 0 -5 -7 -9 -16 -9 -8 0 -12 -4 -9 -10
3 -5 0 -10 -8 -10 -8 0 -20 -6 -26 -13 -6 -8 -29 -20 -52 -27 -52 -17 -105
-63 -130 -112 -25 -50 -49 -165 -49 -239 0 -68 5 -71 73 -39 53 25 96 16 115
-23 17 -34 32 -26 32 16 0 18 7 45 15 61 8 15 15 50 15 77 0 43 3 49 20 49 12
0 32 7 45 16 14 9 31 14 37 12 7 -3 22 3 32 13 11 11 14 19 8 19 -7 0 -12 5
-12 11 0 6 9 8 20 4 14 -4 29 3 52 25 18 17 58 42 88 56 30 13 62 28 70 33 18
9 60 88 60 112 0 10 -7 24 -15 33 -8 8 -15 19 -15 25 0 5 -23 9 -55 8 -30 -2
-56 1 -57 5 -2 4 -10 3 -18 -1z"/>
<path d="M1147 4701 c-9 -35 7 -44 47 -27 37 15 42 42 6 31 -10 -3 -21 -1 -25
5 -10 16 -22 12 -28 -9z"/>
<path d="M3290 4060 c-6 -12 -9 -24 -6 -28 3 -3 6 0 6 6 0 7 9 12 21 12 11 0
19 5 17 12 -7 21 -26 20 -38 -2z"/>
<path d="M3365 4041 c5 -18 4 -22 -6 -16 -9 6 -11 3 -6 -8 4 -10 1 -17 -5 -17
-8 0 -7 -6 3 -15 22 -22 52 -9 43 19 -4 11 -13 30 -21 41 -14 19 -15 19 -8 -4z"/>
<path d="M5232 3905 c-7 -8 -22 -15 -32 -15 -11 0 -20 -5 -20 -10 0 -6 -18
-17 -40 -26 -22 -9 -40 -22 -40 -30 0 -8 -9 -14 -20 -14 -11 0 -20 -7 -20 -15
0 -8 -6 -15 -14 -15 -8 0 -18 -9 -21 -20 -4 -11 -20 -27 -36 -35 -20 -11 -29
-23 -29 -39 0 -13 -7 -29 -15 -36 -17 -14 -21 -85 -5 -95 8 -5 7 -11 -1 -21
-9 -11 -5 -20 19 -42 23 -22 28 -32 19 -41 -8 -8 -7 -11 7 -11 13 0 16 -5 11
-20 -4 -13 -1 -22 9 -26 9 -3 16 -12 16 -20 0 -7 11 -21 25 -30 14 -9 25 -21
25 -28 0 -6 12 -22 25 -35 14 -13 25 -27 25 -32 0 -5 9 -9 20 -9 11 0 30 -10
41 -21 17 -17 19 -23 8 -30 -8 -5 -21 -8 -29 -8 -11 0 -9 3 3 8 17 6 17 8 3
20 -13 11 -18 10 -31 -3 -14 -14 -14 -18 0 -39 8 -13 13 -32 9 -41 -8 -21 -24
-21 -24 2 0 12 -4 9 -14 -9 -7 -15 -14 -55 -14 -89 0 -39 -4 -65 -12 -70 -22
-14 -3 -40 29 -40 20 0 34 7 41 21 15 26 5 51 -17 47 -14 -2 -19 5 -21 37 -3
32 -1 38 9 28 21 -21 29 -15 29 19 0 31 0 31 21 12 17 -15 23 -16 40 -6 10 7
30 10 43 6 18 -4 25 -1 29 15 3 12 13 21 22 21 25 0 56 -20 49 -31 -8 -14 15
-39 36 -39 9 0 17 -7 17 -15 0 -10 -8 -15 -21 -13 -18 3 -21 -2 -19 -26 1 -16
6 -32 11 -35 4 -3 8 -42 8 -86 -1 -93 17 -128 73 -145 32 -9 38 -6 78 26 l43
36 -5 59 c-4 38 -2 59 5 59 5 0 10 21 10 46 0 25 4 53 9 62 5 9 12 38 15 64 7
53 15 78 25 78 3 0 24 -7 46 -15 63 -22 256 -14 300 13 6 4 15 7 22 8 6 1 19
6 28 11 12 7 -1 9 -42 7 -41 -2 -49 -1 -28 4 29 8 30 8 8 20 -12 7 -28 12 -35
12 -7 0 -22 14 -33 30 -11 16 -25 30 -32 30 -7 0 -15 16 -19 35 -7 40 -21 54
-30 31 -10 -25 -22 -19 -40 19 -9 20 -24 35 -34 35 -10 0 -23 7 -30 15 -7 8
-20 15 -29 15 -10 0 -28 11 -41 26 -18 18 -31 23 -48 19 -13 -3 -30 -1 -38 6
-8 6 -21 8 -31 4 -29 -13 -47 -15 -68 -8 -20 6 -20 6 -1 13 28 9 -63 37 -128
38 -27 1 -53 7 -57 14 -6 9 -10 8 -15 -5 -5 -14 -9 -15 -20 -6 -8 6 -14 16
-14 21 0 5 -11 19 -24 31 -13 12 -27 33 -31 47 -4 14 -13 28 -19 33 -8 5 -7 9
2 16 9 5 11 19 7 44 -6 30 -3 38 14 49 12 7 21 17 21 23 0 5 20 28 45 51 25
22 45 46 45 53 0 7 -4 10 -9 6 -5 -3 -12 -1 -16 5 -8 14 -17 12 -33 -5z m-7
-757 c14 -6 25 -14 25 -18 0 -12 -54 -19 -70 -9 -10 5 -11 8 -2 9 6 0 12 7 12
15 0 18 2 18 35 3z"/>
<path d="M3321 3851 c-11 -7 -9 -10 7 -15 25 -8 74 3 66 15 -7 11 -55 11 -73
0z"/>
<path d="M3555 3840 c3 -5 8 -10 11 -10 2 0 4 5 4 10 0 6 -5 10 -11 10 -5 0
-7 -4 -4 -10z"/>
<path d="M3103 3683 c-13 -2 -23 -8 -23 -13 0 -5 -10 -11 -22 -13 -15 -3 -9
-5 14 -6 20 0 48 -5 61 -10 20 -8 30 -6 46 8 12 10 21 23 21 30 0 11 -51 13
-97 4z"/>
<path d="M3413 3653 c-15 -6 -18 -53 -3 -53 6 0 10 5 10 10 0 6 9 10 21 10 11
0 30 5 42 12 l22 12 -25 7 c-30 8 -51 9 -67 2z"/>
<path d="M3280 3630 c0 -5 9 -10 20 -10 11 0 20 5 20 10 0 6 -9 10 -20 10 -11
0 -20 -4 -20 -10z"/>
<path d="M3553 3632 c-17 -11 -20 -47 -4 -47 20 0 38 32 26 44 -6 6 -15 7 -22
3z"/>
<path d="M3234 3619 c-3 -6 -15 -9 -25 -6 -10 3 -22 1 -25 -4 -3 -5 4 -9 15
-9 12 0 21 -4 21 -10 0 -16 27 -11 34 6 12 31 -3 50 -20 23z"/>
<path d="M3041 3584 c0 -11 3 -14 6 -6 3 7 2 16 -1 19 -3 4 -6 -2 -5 -13z"/>
<path d="M2960 3540 c0 -5 7 -10 16 -10 8 0 12 5 9 10 -3 6 -10 10 -16 10 -5
0 -9 -4 -9 -10z"/>
<path d="M3060 3520 c-21 -7 -19 -8 18 -9 23 -1 42 4 42 9 0 12 -24 12 -60 0z"/>
<path d="M3120 3490 c0 -5 5 -10 10 -10 6 0 10 5 10 10 0 6 -4 10 -10 10 -5 0
-10 -4 -10 -10z"/>
<path d="M3704 3402 c-23 -19 -45 -70 -25 -58 6 4 11 14 11 22 0 8 10 14 25
14 18 0 25 5 25 20 0 24 -8 25 -36 2z"/>
<path d="M3750 3280 c0 -5 5 -10 11 -10 5 0 7 5 4 10 -3 6 -8 10 -11 10 -2 0
-4 -4 -4 -10z"/>
<path d="M3770 3215 c0 -8 4 -15 9 -15 5 0 11 7 15 15 3 9 0 15 -9 15 -8 0
-15 -7 -15 -15z"/>
<path d="M6000 3210 c0 -5 5 -10 11 -10 5 0 7 5 4 10 -3 6 -8 10 -11 10 -2 0
-4 -4 -4 -10z"/>
<path d="M3760 3131 c0 -6 -7 -8 -15 -5 -8 4 -15 4 -15 1 0 -9 31 -37 41 -37
12 0 12 37 -1 45 -5 3 -10 2 -10 -4z"/>
<path d="M4275 3050 c-3 -5 -1 -10 4 -10 6 0 11 5 11 10 0 6 -2 10 -4 10 -3 0
-8 -4 -11 -10z"/>
<path d="M5283 3016 c-18 -12 -32 -28 -32 -36 0 -11 3 -10 15 5 12 16 18 18
34 7 26 -16 30 -15 30 6 0 34 -14 39 -47 18z"/>
<path d="M5220 3010 c0 -5 5 -10 11 -10 5 0 7 5 4 10 -3 6 -8 10 -11 10 -2 0
-4 -4 -4 -10z"/>
<path d="M4985 2990 c3 -5 13 -10 21 -10 8 0 12 5 9 10 -3 6 -13 10 -21 10 -8
0 -12 -4 -9 -10z"/>
<path d="M5184 2929 c-3 -5 1 -18 8 -28 12 -16 16 -17 32 -6 10 8 15 18 12 23
-8 14 -45 22 -52 11z"/>
<path d="M5090 2903 c0 -5 7 -17 15 -27 14 -19 15 -19 15 7 0 17 -5 27 -15 27
-8 0 -15 -3 -15 -7z"/>
<path d="M3833 2888 c-22 -6 -30 -13 -27 -23 6 -14 34 -10 34 5 0 5 10 10 23
12 12 2 18 6 12 9 -5 3 -24 2 -42 -3z"/>
</g>
</svg>
